# xmcd
#
# Track frame offsets: 
#        150
#        24732
#        47426
#        80093
#        98900
#        126913
#        147037
#        177553
#        196579
#        223532
#        257386
#        279787
#        299654
#
# Disc length: 4427 seconds
#
# Revision: 2
# Processed by: cddbd v1.5.2PL0 Copyright (c) Steve Scherf et al.
# Submitted via: ExactAudioCopy v1.3
#
DISCID=ba11490d
DTITLE=Various Artist - Italo 80s Disco Hits
DYEAR=2005
DGENRE=Italo Disco
TTITLE0=Joe Yellow - I'm Your Lover (12'' Vocal)
TTITLE1=Scotch - Disco Band (12'' Version)
TTITLE2=Tina Gabriel - If You Say You Love Me (Extended Version)
TTITLE3=Alan Ross - Valentino Mon Amour (7'' Version)
TTITLE4=Mike Cannon - Voices In The Dark (12'' Version)
TTITLE5=Brian Ice - Over Again
TTITLE6=Dario Diviacchi - Waiting For Heaven (12'' Vocal)
TTITLE7=Ken Laszlo - Don't Cry (Remix)
TTITLE8=Linda Jo Rizzo - Heartflash (Tonight) (Maxi Version)
TTITLE9=Ryan Paris - Dolce Vita (12'' Vocal)
TTITLE10=Alan Berry - Come On (12'' Vocal)
TTITLE11=J.D. Jaber - Don't Wake Me Up
TTITLE12=Laserdance - Humanoid Invasion (12'' Dance Mix)
EXTD=
EXTT0=
EXTT1=
EXTT2=
EXTT3=
EXTT4=
EXTT5=
EXTT6=
EXTT7=
EXTT8=
EXTT9=
EXTT10=
EXTT11=
EXTT12=
PLAYORDER=
